<?xml version="1.0" encoding="UTF-8" standalone="no"?>
<!-- Created with Inkscape (http://www.inkscape.org/) -->

<svg
   width="70mm"
   height="100mm"
   viewBox="0 0 70 100"
   version="1.1"
   id="svg1"
   xml:space="preserve"
   inkscape:version="1.4.4 (dcaf3e7d9e, 2026-05-05)"
   sodipodi:docname="back.svg"
   xmlns:inkscape="http://www.inkscape.org/namespaces/inkscape"
   xmlns:sodipodi="http://sodipodi.sourceforge.net/DTD/sodipodi-0.dtd"
   xmlns:xlink="http://www.w3.org/1999/xlink"
   xmlns="http://www.w3.org/2000/svg"
   xmlns:svg="http://www.w3.org/2000/svg"><sodipodi:namedview
     id="namedview1"
     pagecolor="#ffffff"
     bordercolor="#000000"
     borderopacity="0.25"
     inkscape:showpageshadow="2"
     inkscape:pageopacity="0.0"
     inkscape:pagecheckerboard="0"
     inkscape:deskcolor="#d1d1d1"
     inkscape:document-units="mm"
     inkscape:zoom="0.52367709"
     inkscape:cx="464.02641"
     inkscape:cy="629.20453"
     inkscape:window-width="1920"
     inkscape:window-height="1024"
     inkscape:window-x="0"
     inkscape:window-y="32"
     inkscape:window-maximized="1"
     inkscape:current-layer="layer1" /><defs
     id="defs1"><pattern
       inkscape:collect="always"
       xlink:href="#diamonds"
       id="pattern10"
       patternTransform="rotate(5.6992042,269.35952,197.70958)" /><pattern
       id="diamonds"
       x="0"
       y="0"
       width="28"
       height="28"
       patternUnits="userSpaceOnUse"
       inkscape:label="diamonds"><rect
         width="28"
         height="28"
         fill="#1b2a4a"
         id="rect1" /><path
         d="M14 2 L26 14 L14 26 L2 14 Z"
         fill="none"
         stroke="#3a4f7a"
         stroke-width="1"
         id="path1" /><circle
         cx="14"
         cy="14"
         r="2"
         fill="#c9a24b"
         opacity="0.55"
         id="circle1" /></pattern><clipPath
       id="cardClip"><rect
         x="215"
         y="65"
         width="250"
         height="370"
         rx="16"
         id="rect2" /></clipPath></defs><g
     inkscape:label="Layer 1"
     inkscape:groupmode="layer"
     id="layer1"><g
       id="g14"
       transform="translate(-70,-98.500001)"><rect
         x="215"
         y="65"
         width="250"
         height="370"
         rx="16"
         fill="url(#diamonds)"
         clip-path="url(#cardClip)"
         style="color:#0b0b0b;font-weight:400;font-size:16px;font-family:'Anthropic Sans', '-apple-system', BlinkMacSystemFont, 'Segoe UI', sans-serif;dominant-baseline:auto;text-anchor:start;display:inline;fill:url(#pattern10);stroke:none;stroke-width:1px;stroke-linecap:butt;stroke-linejoin:miter"
         id="rect4"
         transform="matrix(0.26458333,0,0,0.26458333,15.041668,82.354168)" /><rect
         x="73.514587"
         y="101.13959"
         width="62.970833"
         height="94.720833"
         rx="3.175"
         fill="none"
         stroke="#c9a24b"
         stroke-width="2.5"
         style="color:#0b0b0b;font-weight:400;font-size:16px;font-family:'Anthropic Sans', '-apple-system', BlinkMacSystemFont, 'Segoe UI', sans-serif;dominant-baseline:auto;text-anchor:start;display:inline;fill:none;stroke:#c9a24b;stroke-width:0.661458px;stroke-linecap:butt;stroke-linejoin:miter"
         id="rect5" /><rect
         x="75.102081"
         y="102.72708"
         width="59.795834"
         height="91.54583"
         rx="2.3812499"
         fill="none"
         stroke="#c9a24b"
         stroke-width="1"
         style="color:#0b0b0b;font-weight:400;font-size:16px;font-family:'Anthropic Sans', '-apple-system', BlinkMacSystemFont, 'Segoe UI', sans-serif;dominant-baseline:auto;text-anchor:start;display:inline;fill:none;stroke:#c9a24b;stroke-width:0.264583px;stroke-linecap:butt;stroke-linejoin:miter"
         id="rect6" /><g
         transform="matrix(0.26458333,0,0,0.26458333,105,148.5)"
         style="color:#0b0b0b;font-weight:400;font-size:16px;font-family:'Anthropic Sans', '-apple-system', BlinkMacSystemFont, 'Segoe UI', sans-serif;dominant-baseline:auto;text-anchor:start;display:inline;fill:#000000;stroke:none;stroke-width:1px;stroke-linecap:butt;stroke-linejoin:miter"
         id="g12"
         inkscape:label="symbole jetons"><path
           sodipodi:type="star"
           style="fill:#0e1830;fill-opacity:1;stroke:#c9a24b;stroke-width:0.410351;stroke-linecap:round;stroke-linejoin:round;stroke-dasharray:none;stroke-opacity:1"
           id="path10"
           inkscape:flatsided="true"
           sodipodi:sides="500"
           sodipodi:cx="104.22124"
           sodipodi:cy="151.14687"
           sodipodi:r1="12.791625"
           sodipodi:r2="10.348642"
           sodipodi:arg1="1.0471976"
           sodipodi:arg2="1.0534808"
           inkscape:rounded="0"
           inkscape:randomized="0"
           d="m 110.61705,162.22474 -0.13971,0.0795 -0.1407,0.0777 -0.14166,0.076 -0.14261,0.0742 -0.14353,0.0724 -0.14442,0.0706 -0.1453,0.0687 -0.14616,0.0669 -0.14698,0.0651 -0.14779,0.0632 -0.14857,0.0614 -0.14933,0.0595 -0.15007,0.0576 -0.15078,0.0557 -0.15146,0.0538 -0.15214,0.0519 -0.15277,0.05 -0.15339,0.0481 -0.15397,0.0461 -0.15455,0.0442 -0.15509,0.0423 -0.15561,0.0403 -0.1561,0.0383 -0.15658,0.0364 -0.15702,0.0344 -0.15743,0.0324 -0.15784,0.0305 -0.1582,0.0285 -0.15855,0.0265 -0.15886,0.0245 -0.15917,0.0225 -0.15943,0.0205 -0.15968,0.0185 -0.1599,0.0165 -0.16009,0.0145 -0.16026,0.0124 -0.1604,0.0104 -0.16053,0.008 -0.16061,0.006 -0.16069,0.004 -0.16072,0.002 -0.16074,3.4e-4 -0.16074,-0.002 -0.1607,-0.004 -0.16064,-0.006 -0.16056,-0.008 -0.16044,-0.01 -0.16032,-0.0118 -0.16015,-0.0138 -0.15996,-0.0158 -0.15976,-0.0178 -0.15951,-0.0198 -0.15926,-0.0218 -0.15897,-0.0238 -0.15866,-0.0258 -0.15832,-0.0278 -0.15796,-0.0298 -0.15757,-0.0318 -0.15716,-0.0338 -0.15672,-0.0357 -0.15626,-0.0377 -0.15578,-0.0396 -0.15527,-0.0416 -0.15473,-0.0436 -0.15417,-0.0455 -0.15359,-0.0474 -0.15298,-0.0494 -0.15234,-0.0513 -0.151696,-0.0532 -0.15101,-0.0551 -0.150307,-0.057 -0.149579,-0.0589 -0.148827,-0.0607 -0.148053,-0.0626 -0.147254,-0.0644 -0.146433,-0.0663 -0.145587,-0.0681 -0.144721,-0.07 -0.143829,-0.0718 -0.142917,-0.0736 -0.14198,-0.0754 -0.141022,-0.0771 -0.140042,-0.0789 -0.139039,-0.0807 -0.138015,-0.0824 -0.136968,-0.0841 -0.1359,-0.0858 -0.13481,-0.0875 -0.1337,-0.0892 -0.132568,-0.0909 -0.131415,-0.0926 -0.130242,-0.0942 -0.129048,-0.0958 -0.127833,-0.0974 -0.126598,-0.0991 -0.125343,-0.10064 -0.12407,-0.1022 -0.122775,-0.10375 -0.121461,-0.10529 -0.120129,-0.1068 -0.118777,-0.10831 -0.117407,-0.10979 -0.116018,-0.11126 -0.114611,-0.11271 -0.113186,-0.11413 -0.111742,-0.11555 -0.110282,-0.11695 -0.108803,-0.11832 -0.107308,-0.11968 -0.105795,-0.12102 -0.104266,-0.12234 -0.102721,-0.12364 -0.101159,-0.12492 -0.09958,-0.12619 -0.09799,-0.12742 -0.09638,-0.12864 -0.09476,-0.12985 -0.09311,-0.13103 -0.09146,-0.13218 -0.08979,-0.13333 -0.08811,-0.13444 -0.08642,-0.13554 -0.0847,-0.13661 -0.08298,-0.13767 -0.08124,-0.1387 -0.0795,-0.13971 -0.07773,-0.1407 -0.07596,-0.14166 -0.07417,-0.14261 -0.07238,-0.14353 -0.07057,-0.14442 -0.06875,-0.14531 -0.06691,-0.14615 -0.06507,-0.14698 -0.06322,-0.14779 -0.06136,-0.14857 -0.05949,-0.14933 -0.05761,-0.15007 -0.05571,-0.15078 -0.05382,-0.15147 -0.05191,-0.15213 -0.04999,-0.15277 -0.04807,-0.15339 -0.04614,-0.15398 -0.0442,-0.15454 -0.04225,-0.15509 -0.0403,-0.15561 -0.03834,-0.15611 -0.03638,-0.15657 -0.03441,-0.15702 -0.03243,-0.15743 -0.03045,-0.15784 -0.02847,-0.1582 -0.02647,-0.15855 -0.02448,-0.15887 -0.02248,-0.15916 -0.02048,-0.15943 -0.01848,-0.15968 -0.01647,-0.1599 -0.01446,-0.16009 -0.01244,-0.16026 -0.01043,-0.1604 -0.0084,-0.16053 -0.0064,-0.16061 -0.0044,-0.16069 -0.0024,-0.16072 -3.37e-4,-0.16075 0.0017,-0.16073 0.0037,-0.1607 0.0057,-0.16064 0.0077,-0.16056 0.0098,-0.16045 0.01177,-0.16031 0.01379,-0.16015 0.0158,-0.15996 0.01781,-0.15976 0.01981,-0.15952 0.02181,-0.15925 0.02382,-0.15897 0.02581,-0.15866 0.0278,-0.15832 0.02979,-0.15796 0.03177,-0.15757 0.03375,-0.15716 0.03572,-0.15672 0.03769,-0.15627 0.03965,-0.15577 0.0416,-0.15527 0.04355,-0.15473 0.04549,-0.15417 0.04743,-0.15359 0.04935,-0.15298 0.05127,-0.15235 0.05318,-0.15169 0.05508,-0.15101 0.05698,-0.1503 0.05886,-0.14958 0.06074,-0.14883 0.0626,-0.14805 0.06446,-0.14726 0.0663,-0.14643 0.06814,-0.14559 0.06996,-0.14472 0.07177,-0.14383 0.07358,-0.14291 0.07536,-0.14198 0.07714,-0.14103 0.07891,-0.14004 0.08066,-0.13904 0.0824,-0.13801 0.08413,-0.13697 0.08585,-0.1359 0.08755,-0.13481 0.08924,-0.1337 0.09091,-0.13257 0.09257,-0.13141 0.09421,-0.13025 0.09584,-0.12904 0.09745,-0.12784 0.09905,-0.12659 0.100635,-0.12535 0.102202,-0.12407 0.103753,-0.12277 0.105287,-0.12146 0.106806,-0.12013 0.108306,-0.11878 0.109791,-0.11741 0.111257,-0.11601 0.112707,-0.11462 0.114138,-0.11318 0.115551,-0.11174 0.116946,-0.11029 0.118322,-0.1088 0.119681,-0.10731 0.121019,-0.10579 0.12234,-0.10427 0.12364,-0.10272 0.124921,-0.10116 0.126182,-0.0996 0.127424,-0.098 0.128644,-0.0964 0.129846,-0.0948 0.131027,-0.0931 0.132186,-0.0915 0.133325,-0.0898 0.134442,-0.0881 0.13554,-0.0864 0.136614,-0.0847 0.137668,-0.083 0.1387,-0.0812 0.13971,-0.0795 0.140698,-0.0777 0.141664,-0.0759 0.142607,-0.0742 0.143527,-0.0724 0.144426,-0.0706 0.145301,-0.0687 0.146154,-0.0669 0.146983,-0.0651 0.147789,-0.0632 0.148571,-0.0614 0.149331,-0.0595 0.150067,-0.0576 0.150779,-0.0557 0.151468,-0.0538 0.15213,-0.0519 0.15277,-0.05 0.15339,-0.0481 0.15398,-0.0461 0.15455,-0.0442 0.15509,-0.0422 0.15561,-0.0403 0.1561,-0.0384 0.15657,-0.0364 0.15702,-0.0344 0.15744,-0.0324 0.15783,-0.0305 0.1582,-0.0285 0.15855,-0.0265 0.15887,-0.0245 0.15916,-0.0225 0.15943,-0.0205 0.15968,-0.0185 0.1599,-0.0165 0.16009,-0.0145 0.16026,-0.0124 0.16041,-0.0104 0.16052,-0.008 0.16062,-0.006 0.16068,-0.004 0.16073,-0.002 0.16074,-3.4e-4 0.16073,0.002 0.1607,0.004 0.16065,0.006 0.16055,0.008 0.16045,0.01 0.16031,0.0118 0.16015,0.0138 0.15997,0.0158 0.15975,0.0178 0.15952,0.0198 0.15925,0.0218 0.15897,0.0238 0.15866,0.0258 0.15832,0.0278 0.15796,0.0298 0.15757,0.0318 0.15716,0.0337 0.15673,0.0357 0.15626,0.0377 0.15578,0.0396 0.15526,0.0416 0.15473,0.0436 0.15417,0.0455 0.15359,0.0474 0.15298,0.0494 0.15235,0.0513 0.15169,0.0532 0.15101,0.0551 0.15031,0.057 0.14958,0.0589 0.14882,0.0607 0.14806,0.0626 0.14725,0.0645 0.14643,0.0663 0.14559,0.0681 0.14472,0.07 0.14383,0.0718 0.14292,0.0736 0.14198,0.0754 0.14102,0.0771 0.14004,0.0789 0.13904,0.0807 0.13801,0.0824 0.13697,0.0841 0.1359,0.0858 0.13481,0.0875 0.1337,0.0892 0.13257,0.0909 0.13142,0.0926 0.13024,0.0942 0.12905,0.0958 0.12783,0.0975 0.1266,0.0991 0.12534,0.10064 0.12407,0.1022 0.12277,0.10375 0.12147,0.10529 0.12013,0.10681 0.11877,0.1083 0.11741,0.10979 0.11602,0.11126 0.11461,0.11271 0.11318,0.11414 0.11175,0.11555 0.11028,0.11694 0.1088,0.11832 0.10731,0.11969 0.10579,0.12101 0.10427,0.12234 0.10272,0.12364 0.10116,0.12493 0.0996,0.12618 0.098,0.12742 0.0964,0.12865 0.0948,0.12984 0.0931,0.13103 0.0915,0.13218 0.0898,0.13333 0.0881,0.13444 0.0864,0.13554 0.0847,0.13662 0.083,0.13766 0.0812,0.1387 0.0795,0.13971 0.0777,0.1407 0.076,0.14167 0.0742,0.1426 0.0724,0.14353 0.0706,0.14443 0.0688,0.1453 0.0669,0.14615 0.0651,0.14698 0.0632,0.14779 0.0614,0.14857 0.0595,0.14934 0.0576,0.15006 0.0557,0.15078 0.0538,0.15147 0.0519,0.15213 0.05,0.15277 0.0481,0.15339 0.0461,0.15398 0.0442,0.15454 0.0423,0.1551 0.0403,0.1556 0.0383,0.15611 0.0364,0.15657 0.0344,0.15702 0.0324,0.15744 0.0305,0.15783 0.0285,0.1582 0.0265,0.15855 0.0245,0.15887 0.0225,0.15916 0.0205,0.15943 0.0185,0.15968 0.0165,0.1599 0.0145,0.16009 0.0124,0.16026 0.0104,0.16041 0.008,0.16052 0.006,0.16062 0.004,0.16068 0.002,0.16072 3.4e-4,0.16075 -0.002,0.16073 -0.004,0.1607 -0.006,0.16064 -0.008,0.16056 -0.01,0.16045 -0.0118,0.16031 -0.0138,0.16015 -0.0158,0.15997 -0.0178,0.15975 -0.0198,0.15952 -0.0218,0.15925 -0.0238,0.15897 -0.0258,0.15866 -0.0278,0.15832 -0.0298,0.15796 -0.0318,0.15757 -0.0337,0.15716 -0.0357,0.15673 -0.0377,0.15626 -0.0396,0.15577 -0.0416,0.15527 -0.0435,0.15473 -0.0455,0.15417 -0.0474,0.15359 -0.0493,0.15298 -0.0513,0.15235 -0.0532,0.15169 -0.0551,0.15101 -0.057,0.15031 -0.0589,0.14957 -0.0607,0.14883 -0.0626,0.14805 -0.0644,0.14726 -0.0663,0.14643 -0.0681,0.14559 -0.07,0.14472 -0.0718,0.14383 -0.0736,0.14292 -0.0754,0.14198 -0.0772,0.14102 -0.0789,0.14004 -0.0807,0.13904 -0.0824,0.13801 -0.0841,0.13697 -0.0858,0.1359 -0.0876,0.13481 -0.0892,0.1337 -0.0909,0.13257 -0.0926,0.13142 -0.0942,0.13024 -0.0958,0.12904 -0.0974,0.12784 -0.0991,0.1266 -0.10064,0.12534 -0.1022,0.12407 -0.10375,0.12277 -0.10529,0.12147 -0.1068,0.12012 -0.10831,0.11878 -0.10979,0.11741 -0.11126,0.11602 -0.1127,0.11461 -0.11414,0.11318 -0.11555,0.11175 -0.11695,0.11028 -0.11832,0.1088 -0.11968,0.10731 -0.12102,0.10579 -0.12234,0.10427 -0.12364,0.10272 -0.12492,0.10116 -0.12618,0.0996 -0.12743,0.098 -0.12864,0.0964 -0.12985,0.0947 -0.13103,0.0931 -0.13218,0.0915 -0.13333,0.0898 -0.13444,0.0881 -0.13554,0.0864 -0.13661,0.0847 -0.13767,0.083 z"
           inkscape:transform-center-x="-0.50344937"
           inkscape:transform-center-y="-1.0013857"
           transform="matrix(4.6052339,0,0,4.6052339,-479.96317,-696.06667)" /><path
           sodipodi:type="star"
           style="fill:#142243;fill-opacity:1;stroke:#c9a24b;stroke-width:0.449879;stroke-linecap:round;stroke-linejoin:round;stroke-dasharray:none;stroke-opacity:1"
           id="path12"
           inkscape:flatsided="true"
           sodipodi:sides="7"
           sodipodi:cx="104.22124"
           sodipodi:cy="151.14687"
           sodipodi:r1="12.791625"
           sodipodi:r2="10.348642"
           sodipodi:arg1="1.0471976"
           sodipodi:arg2="1.4959966"
           inkscape:rounded="0"
           inkscape:randomized="0"
           d="m 110.61705,162.22474 -11.069119,0.82951 -7.550023,-8.13699 1.654393,-10.97617 9.613019,-5.55008 10.33284,4.05534 3.27183,10.60701 z"
           inkscape:transform-center-x="-0.4592112"
           inkscape:transform-center-y="-0.91340315"
           transform="matrix(4.2006016,0,0,4.2006016,-437.71938,-635.05201)" /><path
           sodipodi:type="star"
           style="fill:#192b57;fill-opacity:1;stroke:#c9a24b;stroke-width:0.548653;stroke-linecap:round;stroke-linejoin:round;stroke-dasharray:none;stroke-opacity:1"
           id="path13"
           inkscape:flatsided="true"
           sodipodi:sides="5"
           sodipodi:cx="104.22124"
           sodipodi:cy="151.14687"
           sodipodi:r1="12.791625"
           sodipodi:r2="10.348642"
           sodipodi:arg1="1.0471976"
           sodipodi:arg2="1.6755161"
           inkscape:rounded="0"
           inkscape:randomized="0"
           d="m 110.61705,162.22474 -14.955081,-1.57184 -3.126462,-14.70886 13.022823,-7.51873 11.175,10.06203 z"
           inkscape:transform-center-x="-0.37654324"
           inkscape:transform-center-y="-0.74896099"
           transform="matrix(3.4443682,0,0,3.4443682,-358.97632,-520.60546)" /><path
           sodipodi:type="star"
           style="fill:#1f356b;fill-opacity:1;stroke:#c9a24b;stroke-width:0.772363;stroke-linecap:round;stroke-linejoin:round;stroke-dasharray:none;stroke-opacity:1"
           id="path14"
           inkscape:flatsided="true"
           sodipodi:sides="4"
           sodipodi:cx="104.22124"
           sodipodi:cy="151.14687"
           sodipodi:r1="12.791625"
           sodipodi:r2="10.348642"
           sodipodi:arg1="1.0471976"
           sodipodi:arg2="1.8325958"
           inkscape:rounded="0"
           inkscape:randomized="0"
           d="m 110.61705,162.22474 -17.473685,-4.68206 4.68206,-17.47369 17.473685,4.68206 z"
           inkscape:transform-center-x="-0.26747887"
           inkscape:transform-center-y="-0.53202992"
           transform="matrix(2.4467305,0,0,2.4467305,-255.17352,-369.47307)" /></g></g></g></svg>
