<?xml version="1.0" encoding="UTF-8" standalone="no"?>
<!-- Created with Inkscape (http://www.inkscape.org/) -->

<svg
   width="100mm"
   height="100mm"
   viewBox="0 0 100 100"
   version="1.1"
   id="svg1"
   xml:space="preserve"
   inkscape:version="1.4.4 (dcaf3e7d9e, 2026-05-05)"
   sodipodi:docname="cow.svg"
   inkscape:export-filename="cow.png"
   inkscape:export-xdpi="96"
   inkscape:export-ydpi="96"
   xmlns:inkscape="http://www.inkscape.org/namespaces/inkscape"
   xmlns:sodipodi="http://sodipodi.sourceforge.net/DTD/sodipodi-0.dtd"
   xmlns="http://www.w3.org/2000/svg"
   xmlns:svg="http://www.w3.org/2000/svg"><sodipodi:namedview
     id="namedview1"
     pagecolor="#ffffff"
     bordercolor="#000000"
     borderopacity="0.25"
     inkscape:showpageshadow="2"
     inkscape:pageopacity="0.0"
     inkscape:pagecheckerboard="0"
     inkscape:deskcolor="#d1d1d1"
     inkscape:document-units="mm"
     inkscape:zoom="1.5310783"
     inkscape:cx="180.26511"
     inkscape:cy="183.85735"
     inkscape:window-width="1920"
     inkscape:window-height="1024"
     inkscape:window-x="0"
     inkscape:window-y="32"
     inkscape:window-maximized="1"
     inkscape:current-layer="layer1" /><defs
     id="defs1" /><g
     inkscape:label="Layer 1"
     inkscape:groupmode="layer"
     id="layer1"><path
       d="m 35.107935,79.833887 c -0.333467,-0.002 -0.662208,0.01344 -0.984436,0.04754 -2.084344,0.22071 -4.316234,1.453679 -5.994983,3.154329 -0.163956,0.166096 -0.322154,0.336569 -0.474907,0.51108 -1.415843,1.617525 -2.322933,3.574897 -2.201416,5.4684 0.136845,2.13235 2.835053,3.999482 4.971273,4.046782 1.92853,0.0427 11.245166,0.390264 13.064836,0.230994 1.341476,-0.117418 2.655305,-1.400553 3.217891,-2.811715 0.104463,-0.262031 0.182961,-0.528503 0.230994,-0.792717 0.06345,-0.34901 0.07339,-0.694192 0.01964,-1.020092 -0.790959,-4.79564 -6.846362,-8.802343 -11.848373,-8.834603 z"
       style="fill:#3d3d3d;stroke:#000000;stroke-width:2;stroke-linejoin:round;stroke-opacity:1;fill-opacity:1"
       id="path8" /><path
       d="m 65.35105,79.780143 c -5.00202,0.0323 -11.057931,4.038963 -11.848889,8.834603 -0.01911,0.11587 -0.03016,0.233934 -0.03359,0.353984 -0.01371,0.480633 0.09426,0.989288 0.293522,1.481563 0.567567,1.402176 1.874382,2.672196 3.20859,2.788977 1.81967,0.15927 11.136305,-0.188324 13.064835,-0.230994 2.13622,-0.0473 4.834433,-1.914431 4.971273,-4.046781 0.1243,-1.936912 -0.827703,-3.940524 -2.299601,-5.578988 -0.307287,-0.342061 -0.636851,-0.668329 -0.984436,-0.974617 -1.58867,-1.39992 -3.545558,-2.385194 -5.387268,-2.580204 -0.32223,-0.0341 -0.650976,-0.04964 -0.984436,-0.04754 z"
       style="fill:#3d3d3d;stroke:#000000;stroke-width:2;stroke-linejoin:round;stroke-opacity:1;fill-opacity:1"
       id="path7" /><path
       d="m 49.204232,5.3335246 c -7.310888,0 -12.532642,1.9969709 -16.096175,4.2488362 0.38552,0.3722875 0.692773,0.8018142 0.879016,1.3048302 0.533847,1.441851 -0.0013,3.44593 -1.151351,4.466394 -1.114775,0.989177 -3.07145,1.202115 -4.431771,0.593245 -0.470025,-0.21038 -0.880006,-0.515405 -1.240234,-0.8847 -0.339439,0.478891 -0.497128,0.765844 -0.497128,0.765844 -6.966043,-0.30928 -12.307677,2.269322 -15.827974,8.085812 3.320344,1.378301 6.603096,3.170615 10.187492,1.644344 0.385483,-0.164142 0.774487,-0.366296 1.16737,-0.611849 0,0 -1.773396,13.331741 0.68833,19.268591 2.222447,5.35979 7.073629,9.466696 11.870594,12.731006 0.648673,0.44142 1.374716,0.879755 2.149739,1.306897 a 13.008749,12.254116 0 0 1 -0.02946,-0.825273 13.008749,12.254116 0 0 1 13.008508,-12.254032 13.008749,12.254116 0 0 1 13.009025,12.254032 13.008749,12.254116 0 0 1 -0.01085,0.495061 c 1.750241,-1.067863 3.389697,-2.224493 4.733044,-3.385323 4.500977,-3.88945 8.172882,-9.12754 9.97872,-14.79548 1.48017,-4.64578 0.343648,-14.623397 0.343648,-14.623397 0.277704,0.02137 0.556143,0.0462 0.834574,0.07338 3.437144,0.335572 6.912801,0.977493 10.004558,-1.450041 -4.809679,-4.63027 -9.55916,-9.601619 -15.48381,-7.913729 0,0 -0.203029,-0.290601 -0.618567,-0.775146 -0.296195,0.261552 -0.623301,0.480288 -0.986503,0.642855 -1.360321,0.60887 -3.316996,0.395931 -4.431771,-0.593246 -1.150035,-1.020464 -1.685198,-3.024543 -1.151351,-4.466394 0.09643,-0.260452 0.225019,-0.501243 0.380339,-0.7245033 C 62.561869,7.5288075 56.86983,5.3335246 49.204232,5.3335246 Z M 59.615999,22.337138 a 7.848197,7.848197 0 0 1 7.8481,7.8481 7.848197,7.848197 0 0 1 -7.8481,7.848099 7.848197,7.848197 0 0 1 -7.848099,-7.848099 7.848197,7.848197 0 0 1 7.848099,-7.8481 z m -19.016927,0.150895 a 7.848197,7.848197 0 0 1 7.848617,7.8481 7.848197,7.848197 0 0 1 -7.848617,7.848616 7.848197,7.848197 0 0 1 -7.8481,-7.848616 7.848197,7.848197 0 0 1 7.8481,-7.8481 z"
       style="fill:#f2f2f2;stroke:#000000;stroke-width:2;stroke-linecap:round;stroke-linejoin:round;stroke-opacity:1;fill-opacity:1"
       id="path15" /><path
       d="m 62.879366,57.922563 a 13.008749,12.254116 0 0 0 0.01085,-0.495061 13.008749,12.254116 0 0 0 -13.009025,-12.254032 13.008749,12.254116 0 0 0 -13.008508,12.254032 13.008749,12.254116 0 0 0 0.02946,0.825273 c 4.642294,2.558528 11.046089,4.714441 13.161988,4.714441 2.740051,0 8.16813,-2.209345 12.815238,-5.044653 z"
       style="fill:#fdb3d0;stroke:#000000;stroke-width:2.09285;stroke-linecap:round;stroke-linejoin:round;stroke-opacity:1;fill-opacity:1"
       id="path10" /><path
       d="m 22.193477,24.946281 c -0.392883,0.245553 -0.781887,0.447707 -1.16737,0.611849 a 39.013329,39.013329 0 0 0 -9.975102,26.054224 39.013329,39.013329 0 0 0 16.602604,31.934484 c 0.152753,-0.174511 0.310951,-0.344984 0.474907,-0.51108 1.678749,-1.70065 3.910639,-2.933619 5.994983,-3.154329 0.322228,-0.0341 0.650969,-0.04954 0.984436,-0.04754 h 5.16e-4 c 5.002011,0.03226 11.057414,4.038963 11.848373,8.834603 0.05375,0.3259 0.04381,0.671082 -0.01964,1.020092 -0.04803,0.264214 -0.126531,0.530686 -0.230994,0.792717 a 39.013329,39.013329 0 0 0 3.357935,0.144694 39.013329,39.013329 0 0 0 3.697965,-0.1757 c -0.199261,-0.492275 -0.307237,-1.00093 -0.293522,-1.481563 0.0034,-0.12005 0.01448,-0.238114 0.03359,-0.353984 0.790958,-4.79564 6.846869,-8.802303 11.848889,-8.834603 0.33346,-0.0021 0.662206,0.01344 0.984436,0.04754 1.84171,0.19501 3.798598,1.180284 5.387268,2.580204 0.347585,0.306288 0.677149,0.632556 0.984436,0.974617 A 39.013329,39.013329 0 0 0 89.077767,51.612354 39.013329,39.013329 0 0 0 78.769352,25.191744 c -0.278431,-0.02718 -0.55687,-0.05201 -0.834574,-0.07338 0,0 1.136522,9.977617 -0.343648,14.623397 -1.805838,5.66794 -5.477743,10.90603 -9.97872,14.79548 -1.343347,1.16083 -2.982803,2.31746 -4.733044,3.385323 -4.647108,2.835308 -10.075187,5.044653 -12.815238,5.044653 -2.115899,0 -8.519694,-2.155913 -13.161988,-4.714441 -0.775023,-0.427142 -1.501066,-0.865477 -2.149739,-1.306897 -4.796965,-3.26431 -9.648147,-7.371216 -11.870594,-12.731006 -2.461726,-5.93685 -0.68833,-19.268591 -0.68833,-19.268591 z"
       style="fill:#e7e7e7;stroke:#000000;stroke-width:2;stroke-linecap:round;stroke-linejoin:round;stroke-opacity:1;fill-opacity:1;stroke-dasharray:none"
       id="path9" /><path
       d="m 40.599072,22.488033 a 7.848197,7.848197 0 0 0 -7.8481,7.8481 7.848197,7.848197 0 0 0 7.8481,7.848616 7.848197,7.848197 0 0 0 7.848617,-7.848616 7.848197,7.848197 0 0 0 -7.848617,-7.8481 z"
       style="fill:#ffffff;stroke:#000000;stroke-width:2;stroke-linecap:round;stroke-linejoin:round;stroke-opacity:1;fill-opacity:1"
       id="path12" /><path
       d="m 59.615999,22.337138 a 7.848197,7.848197 0 0 0 -7.848099,7.8481 7.848197,7.848197 0 0 0 7.848099,7.848099 7.848197,7.848197 0 0 0 7.8481,-7.848099 7.848197,7.848197 0 0 0 -7.8481,-7.8481 z"
       style="fill:#ffffff;stroke:#000000;stroke-width:2;stroke-linecap:round;stroke-linejoin:round;stroke-opacity:1;fill-opacity:1"
       id="path11" /><path
       d="m 25.735897,6.7908 c -0.385921,0.018786 -0.701617,0.106488 -0.890902,0.2924886 -0.692991,0.6809673 -0.233035,2.6470869 0.17415,3.8736654 0.470983,1.418758 1.098853,3.033136 2.144572,4.105176 0.360228,0.369295 0.770209,0.67432 1.240234,0.8847 1.360321,0.60887 3.316996,0.395932 4.431771,-0.593245 1.150035,-1.020464 1.685198,-3.024543 1.151351,-4.466394 C 33.80083,10.384175 33.493577,9.9546483 33.108057,9.5823608 32.076576,8.5862858 30.483233,7.9988867 29.136723,7.5023844 28.293789,7.1915675 27.091,6.8469875 26.143107,6.7939006 c -0.142184,-0.00796 -0.27857,-0.00936 -0.40721,-0.0031 z"
       style="fill:#3d3d3d;stroke:#000000;stroke-width:2;stroke-linecap:round;stroke-linejoin:round;stroke-opacity:1;fill-opacity:1"
       id="path13" /><path
       d="m 74.353084,6.5401693 c -0.12864,-0.00627 -0.265026,-0.00484 -0.40721,0.0031 -0.947892,0.052935 -2.150682,0.3971501 -2.993616,0.7079671 -1.589194,0.5859877 -3.522766,1.2987107 -4.470011,2.6603027 -0.15532,0.2232603 -0.283906,0.4640513 -0.380339,0.7245033 -0.533847,1.441851 0.0013,3.44593 1.151351,4.466394 1.114775,0.989177 3.07145,1.202116 4.431771,0.593246 0.363202,-0.162567 0.690308,-0.381303 0.986503,-0.642855 1.199839,-1.059505 1.88993,-2.817189 2.397787,-4.347022 C 75.476505,9.4792282 75.936977,7.5136252 75.243986,6.8326579 75.054701,6.6466573 74.739005,6.558968 74.353084,6.5401693 Z"
       style="fill:#3d3d3d;stroke:#000000;stroke-width:2;stroke-linecap:round;stroke-linejoin:round;stroke-opacity:1;fill-opacity:1"
       id="path14" /><circle
       style="fill:#000000;fill-opacity:1;stroke:none;stroke-width:2;stroke-linecap:round;stroke-linejoin:round;stroke-dasharray:none;stroke-opacity:1"
       id="path16"
       cx="58.063683"
       cy="31.442989"
       r="2.6048934" /><circle
       style="fill:#000000;fill-opacity:1;stroke:none;stroke-width:2;stroke-linecap:round;stroke-linejoin:round;stroke-dasharray:none;stroke-opacity:1"
       id="circle16"
       cx="43.888924"
       cy="31.442989"
       r="2.6048934" /><circle
       style="fill:#000000;fill-opacity:1;stroke:none;stroke-width:2;stroke-linecap:round;stroke-linejoin:round;stroke-dasharray:none;stroke-opacity:1"
       id="circle17"
       cx="46.617119"
       cy="54.395424"
       r="2.6048934" /><circle
       style="fill:#000000;fill-opacity:1;stroke:none;stroke-width:2;stroke-linecap:round;stroke-linejoin:round;stroke-dasharray:none;stroke-opacity:1"
       id="circle18"
       cx="54.564472"
       cy="54.395424"
       r="2.6048934" /><path
       style="fill:#6d6d6d;fill-opacity:1;stroke:none;stroke-width:2;stroke-linecap:round;stroke-linejoin:round;stroke-dasharray:none;stroke-opacity:1"
       d="m 12.537983,58.290621 c 6.049027,-1.649733 13.637806,0.219966 14.627647,3.519434 0.989841,3.299471 3.849381,5.279152 5.939044,5.939044 2.089663,0.659895 5.499116,3.299471 5.609098,7.148851 0.109982,3.849381 -2.529594,5.169167 -2.529594,5.169167 l -3.189486,0.109982 -4.069347,2.089666 -0.989841,1.209805 -5.609096,-4.069345 -4.399292,-5.609098 -4.619257,-8.578619 -0.659894,-3.849381 z"
       id="path18" /><path
       style="fill:#6d6d6d;fill-opacity:1;stroke:none;stroke-width:0.499999;stroke-linecap:round;stroke-linejoin:round"
       d="m 63.625753,79.21617 c -2.949538,-6.179984 -5.196806,-10.814974 -0.561816,-12.781333 4.634989,-1.966357 7.303619,0.421365 10.814973,-1.123633 3.511357,-1.544997 3.230446,-1.123632 6.039533,-5.337259 2.809083,-4.213627 5.758621,-5.477714 7.022708,-4.915898 1.264089,0.561817 1.825905,3.230446 1.825905,3.230446 l -3.089992,9.410433 -7.724981,11.798152 -5.056351,3.932719 z"
       id="path1"
       sodipodi:nodetypes="cssssccccc" /><path
       d="m 22.193477,24.946281 c -0.392883,0.245553 -0.781887,0.447707 -1.16737,0.611849 a 39.013329,39.013329 0 0 0 -9.975102,26.054224 39.013329,39.013329 0 0 0 16.602604,31.934484 c 0.152753,-0.174511 0.310951,-0.344984 0.474907,-0.51108 1.678749,-1.70065 3.910639,-2.933619 5.994983,-3.154329 0.322228,-0.0341 0.650969,-0.04954 0.984436,-0.04754 h 5.16e-4 c 5.002011,0.03226 11.057414,4.038963 11.848373,8.834603 0.05375,0.3259 0.04381,0.671082 -0.01964,1.020092 -0.04803,0.264214 -0.126531,0.530686 -0.230994,0.792717 a 39.013329,39.013329 0 0 0 3.357935,0.144694 39.013329,39.013329 0 0 0 3.697965,-0.1757 c -0.199261,-0.492275 -0.307237,-1.00093 -0.293522,-1.481563 0.0034,-0.12005 0.01448,-0.238114 0.03359,-0.353984 0.790958,-4.79564 6.846869,-8.802303 11.848889,-8.834603 0.33346,-0.0021 0.662206,0.01344 0.984436,0.04754 1.84171,0.19501 3.798598,1.180284 5.387268,2.580204 0.347585,0.306288 0.677149,0.632556 0.984436,0.974617 A 39.013329,39.013329 0 0 0 89.077767,51.612354 39.013329,39.013329 0 0 0 78.769352,25.191744 c -0.278431,-0.02718 -0.55687,-0.05201 -0.834574,-0.07338 0,0 1.136522,9.977617 -0.343648,14.623397 -1.805838,5.66794 -5.477743,10.90603 -9.97872,14.79548 -1.343347,1.16083 -2.982803,2.31746 -4.733044,3.385323 -4.647108,2.835308 -10.075187,5.044653 -12.815238,5.044653 -2.115899,0 -8.519694,-2.155913 -13.161988,-4.714441 -0.775023,-0.427142 -1.501066,-0.865477 -2.149739,-1.306897 -4.796965,-3.26431 -9.648147,-7.371216 -11.870594,-12.731006 -2.461726,-5.93685 -0.68833,-19.268591 -0.68833,-19.268591 z"
       style="fill:none;stroke:#000000;stroke-width:2.09285;stroke-linecap:round;stroke-linejoin:round;stroke-opacity:1;fill-opacity:1"
       id="path19" /></g></svg>
