<?xml version="1.0" encoding="UTF-8" standalone="no"?>
<!-- Created with Inkscape (http://www.inkscape.org/) -->

<svg
   width="100mm"
   height="100mm"
   viewBox="0 0 100 100"
   version="1.1"
   id="svg1"
   xml:space="preserve"
   inkscape:version="1.4.4 (dcaf3e7d9e, 2026-05-05)"
   sodipodi:docname="lion.svg"
   xmlns:inkscape="http://www.inkscape.org/namespaces/inkscape"
   xmlns:sodipodi="http://sodipodi.sourceforge.net/DTD/sodipodi-0.dtd"
   xmlns="http://www.w3.org/2000/svg"
   xmlns:svg="http://www.w3.org/2000/svg"><sodipodi:namedview
     id="namedview1"
     pagecolor="#ffffff"
     bordercolor="#000000"
     borderopacity="0.25"
     inkscape:showpageshadow="2"
     inkscape:pageopacity="0.0"
     inkscape:pagecheckerboard="0"
     inkscape:deskcolor="#d1d1d1"
     inkscape:document-units="mm"
     inkscape:zoom="0.9687513"
     inkscape:cx="93.935358"
     inkscape:cy="89.290203"
     inkscape:window-width="1920"
     inkscape:window-height="1024"
     inkscape:window-x="0"
     inkscape:window-y="32"
     inkscape:window-maximized="1"
     inkscape:current-layer="layer1" /><defs
     id="defs1" /><g
     inkscape:label="Layer 1"
     inkscape:groupmode="layer"
     id="layer1"><path
       style="fill:#d9601b;stroke-width:2;stroke-linecap:round;stroke-linejoin:round;stroke:#000000;stroke-opacity:1;fill-opacity:1"
       d="m 29.847251,15.450342 c 0,0 -0.164428,-5.178531 7.374028,-7.1984547 7.538458,-2.0199233 11.938902,4.3893017 11.938902,4.3893017 0,0 2.63358,-4.7404458 10.709896,-4.7404458 8.076314,0 9.480892,7.9007428 9.480892,7.9007428 0,0 6.84731,-1.75572 10.007607,0 3.160297,1.755721 5.091592,10.358753 5.091592,10.358753 0,0 6.671738,5.09159 8.076313,11.236612 1.404578,6.145022 -5.267161,8.42746 -5.267161,8.42746 0,0 6.671739,4.213728 5.267161,10.18318 -1.404575,5.96945 -6.671738,7.725172 -6.671738,7.725172 0,0 4.564874,2.984725 -0.351145,8.60303 -4.916016,5.618306 -10.534324,6.145022 -10.534324,6.145022 0,0 2.63358,4.564875 -2.106864,7.022883 -4.740447,2.458008 -13.167905,-1.580147 -13.167905,-1.580147 0,0 -3.335869,6.496166 -9.129749,6.847311 -5.793878,0.351144 -10.18318,-7.725172 -10.18318,-7.725172 0,0 -2.458009,7.5496 -9.480892,3.687014 -7.022882,-3.862586 -6.145022,-8.778605 -6.145022,-8.778605 0,0 -7.725171,0 -9.656464,-4.564872 -1.931293,-4.564875 -1.053432,-9.832036 -1.053432,-9.832036 0,0 -5.9694506,-1.931294 -6.496167,-6.671739 -0.526716,-4.740446 3.687013,-9.305321 3.687013,-9.305321 0,0 -4.7404454,-2.984725 -4.3893013,-8.60303 0.3511442,-5.618308 7.3740273,-10.358753 7.3740273,-10.358753 0,0 0.702288,-6.671739 4.916018,-10.534325 4.213729,-3.862585 10.709895,-2.633581 10.709895,-2.633581 z"
       id="path1" /><path
       d="M 50.564872,23.351029 A 27.213671,27.213671 0 0 0 32.56287,30.155782 27.213671,27.213671 0 0 0 25.702307,39.499915 27.213671,27.213671 0 0 0 23.351029,50.564872 27.213671,27.213671 0 0 0 50.564872,77.778198 27.213671,27.213671 0 0 0 77.778198,50.564872 27.213671,27.213671 0 0 0 75.3184,39.258069 27.213671,27.213671 0 0 0 66.530306,28.526424 27.213671,27.213671 0 0 0 50.564872,23.351029 Z"
       style="fill:#e9c752;stroke:#000000;stroke-width:2;stroke-linecap:round;stroke-linejoin:round;fill-opacity:1"
       id="path6" /><path
       d="m 25.702307,39.499915 a 27.213671,27.213671 0 0 1 6.860563,-9.344133 7.3740268,7.3740268 0 0 0 -7.104992,-5.400187 7.3740268,7.3740268 0 0 0 -7.373711,7.374227 7.3740268,7.3740268 0 0 0 7.373711,7.37371 7.3740268,7.3740268 0 0 0 0.244429,-0.0036 z"
       style="fill:#e9c752;stroke:#000000;stroke-width:2;stroke-linecap:round;stroke-linejoin:round;fill-opacity:1"
       id="path5" /><path
       d="m 66.530306,28.526424 a 27.213671,27.213671 0 0 1 8.788094,10.731645 7.3740268,7.3740268 0 0 0 4.918046,-6.953064 7.3740268,7.3740268 0 0 0 -7.374227,-7.37371 7.3740268,7.3740268 0 0 0 -6.331913,3.595129 z"
       style="fill:#e9c752;stroke:#000000;stroke-width:2;stroke-linecap:round;stroke-linejoin:round;fill-opacity:1"
       id="path4" /><circle
       style="fill:#ffffff;stroke:#000000;stroke-width:2;stroke-linecap:round;stroke-linejoin:round;stroke-opacity:1;stroke-dasharray:none;fill-opacity:1"
       id="circle4"
       cx="41.488358"
       cy="41.944221"
       r="7.1819711" /><circle
       style="fill:#ffffff;stroke:#000000;stroke-width:2;stroke-linecap:round;stroke-linejoin:round;stroke-dasharray:none;stroke-opacity:1;fill-opacity:1"
       id="circle6"
       cx="59.590721"
       cy="42.162323"
       r="7.1819711" /><path
       style="fill:none;stroke:#000000;stroke-width:2;stroke-linecap:round;stroke-linejoin:round;stroke-dasharray:none;stroke-opacity:1"
       d="m 41.22104,64.012569 c 0,0 1.308606,1.526706 3.707715,1.635757 2.399107,0.109048 4.907267,-2.50816 4.907267,-2.50816 0,0 2.617208,2.835309 5.452517,2.617208 2.835309,-0.218099 3.816763,-2.071955 3.816763,-2.071955"
       id="path7" /><path
       style="fill:none;stroke:#000000;stroke-width:2;stroke-linecap:round;stroke-linejoin:round;stroke-dasharray:none;stroke-opacity:1"
       d="M 49.726971,63.249217 49.94507,58.77815"
       id="path8" /><circle
       style="fill:#000000;fill-opacity:1;stroke:none;stroke-width:1.90476;stroke-linecap:round;stroke-linejoin:round;stroke-dasharray:none;stroke-opacity:1"
       id="path9"
       cx="43.9473"
       cy="41.002941"
       r="2.1810074" /><circle
       style="fill:#000000;fill-opacity:1;stroke:none;stroke-width:1.90476;stroke-linecap:round;stroke-linejoin:round;stroke-dasharray:none;stroke-opacity:1"
       id="circle9"
       cx="60.632008"
       cy="41.221039"
       r="2.1810074" /><circle
       style="fill:#000000;fill-opacity:1;stroke:none;stroke-width:2.95238;stroke-linecap:round;stroke-linejoin:round;stroke-dasharray:none;stroke-opacity:1"
       id="circle10"
       cx="50.054123"
       cy="56.051895"
       r="3.3805616" /></g></svg>
