<?xml version="1.0" encoding="UTF-8" standalone="no"?>
<!-- Created with Inkscape (http://www.inkscape.org/) -->

<svg
   width="100mm"
   height="100mm"
   viewBox="0 0 100 100"
   version="1.1"
   id="svg1"
   xml:space="preserve"
   inkscape:version="1.4.4 (dcaf3e7d9e, 2026-05-05)"
   sodipodi:docname="pig.svg"
   inkscape:export-filename="pig.png"
   inkscape:export-xdpi="96"
   inkscape:export-ydpi="96"
   xmlns:inkscape="http://www.inkscape.org/namespaces/inkscape"
   xmlns:sodipodi="http://sodipodi.sourceforge.net/DTD/sodipodi-0.dtd"
   xmlns="http://www.w3.org/2000/svg"
   xmlns:svg="http://www.w3.org/2000/svg"><sodipodi:namedview
     id="namedview1"
     pagecolor="#ffffff"
     bordercolor="#000000"
     borderopacity="0.25"
     inkscape:showpageshadow="2"
     inkscape:pageopacity="0.0"
     inkscape:pagecheckerboard="0"
     inkscape:deskcolor="#d1d1d1"
     inkscape:document-units="mm"
     inkscape:zoom="0.33519557"
     inkscape:cx="47.733328"
     inkscape:cy="320.7083"
     inkscape:window-width="1920"
     inkscape:window-height="1024"
     inkscape:window-x="0"
     inkscape:window-y="32"
     inkscape:window-maximized="1"
     inkscape:current-layer="layer1" /><defs
     id="defs1" /><g
     inkscape:label="Layer 1"
     inkscape:groupmode="layer"
     id="layer1"><g
       id="g30"
       transform="translate(-47.829859,-114.86544)"><path
         d="m 122.80387,144.29455 a 27.245506,27.245506 0 0 1 0.48214,5.1015 27.245506,27.245506 0 0 1 -27.245361,27.24588 27.245506,27.245506 0 0 1 -27.245882,-27.24588 27.245506,27.245506 0 0 1 0.274919,-3.8592 36.115314,36.115314 0 0 0 -8.690426,23.49883 36.115314,36.115314 0 0 0 15.136027,29.39717 c 1.678749,-1.70065 3.910639,-2.93362 5.994983,-3.15433 5.15564,-0.54593 11.989635,3.67171 12.833325,8.78706 0.05375,0.3259 0.04381,0.67108 -0.01964,1.02009 a 36.115314,36.115314 0 0 0 2.17041,0.0651 36.115314,36.115314 0 0 0 2.640149,-0.0966 c 0.0034,-0.12005 0.01448,-0.23811 0.03359,-0.35398 0.843696,-5.11535 7.677686,-9.33299 12.833326,-8.78706 1.84171,0.19501 3.7986,1.18028 5.38727,2.5802 a 36.115314,36.115314 0 0 0 15.22129,-29.45763 36.115314,36.115314 0 0 0 -9.80612,-24.74113 z"
         style="fill:#fe8e90;fill-opacity:1;stroke:#000000;stroke-width:2;stroke-linejoin:round;stroke-dasharray:none"
         id="path16" /><path
         d="m 72.552161,120.36216 c -1.275235,-0.0363 -2.38536,0.25216 -3.164665,1.03146 -3.256367,3.25637 1.530984,11.75372 3.095935,14.31386 a 27.245506,27.245506 0 0 1 11.535213,-10.7611 c -2.328143,-1.44655 -7.64078,-4.47537 -11.466483,-4.58422 z"
         style="fill:#fe8e90;fill-opacity:1;stroke:#000000;stroke-width:2;stroke-linejoin:round"
         id="path15" /><path
         d="m 96.040649,122.15068 a 27.245506,27.245506 0 0 0 -12.022005,2.7957 27.245506,27.245506 0 0 0 -11.535213,10.7611 27.245506,27.245506 0 0 0 -3.413745,9.82937 27.245506,27.245506 0 0 0 -0.274919,3.8592 27.245506,27.245506 0 0 0 27.245882,27.24588 27.245506,27.245506 0 0 0 27.245361,-27.24588 27.245506,27.245506 0 0 0 -0.48214,-5.1015 27.245506,27.245506 0 0 0 -2.7404,-7.75146 27.245506,27.245506 0 0 0 -11.13627,-11.15178 27.245506,27.245506 0 0 0 -12.886551,-3.24063 z"
         style="fill:#fea8a9;fill-opacity:1;stroke:#000000;stroke-width:2;stroke-linejoin:round"
         id="path7" /><path
         d="m 108.9272,125.39131 a 27.245506,27.245506 0 0 1 11.13627,11.15178 l 0.30851,0.11368 c 0,0 7.41693,-11.1995 3.56206,-15.05437 -3.25355,-3.25356 -12.27236,2.05391 -15.00684,3.78891 z"
         style="fill:#fe8e90;fill-opacity:1;stroke:#000000;stroke-width:2;stroke-linejoin:round"
         id="path14" /><path
         d="m 82.494706,195.23098 c -0.333467,-0.002 -0.662208,0.0134 -0.984436,0.0475 -2.084344,0.22071 -4.316234,1.45368 -5.994983,3.15433 -1.68364,1.70561 -2.810949,3.88169 -2.676322,5.97948 0.136845,2.13235 2.835053,3.99948 4.971273,4.04678 1.92853,0.0427 11.245165,0.39026 13.064835,0.23099 1.590568,-0.13922 3.142173,-1.9173 3.448885,-3.60443 0.06345,-0.34901 0.07339,-0.69419 0.01964,-1.02009 -0.790959,-4.79564 -6.846878,-8.80234 -11.848889,-8.8346 z"
         style="fill:#402423;fill-opacity:1;stroke:#000000;stroke-width:2;stroke-linejoin:round;stroke-opacity:1"
         id="path18" /><path
         d="m 111.017,195.86556 c -5.00202,0.0323 -11.057935,4.03897 -11.848893,8.83461 -0.01911,0.11587 -0.03016,0.23393 -0.03359,0.35398 -0.05278,1.84965 1.699493,4.11276 3.502113,4.27054 1.81967,0.15927 11.1363,-0.18832 13.06483,-0.23099 2.13622,-0.0473 4.83444,-1.91443 4.97128,-4.04678 0.15025,-2.34128 -1.27153,-4.78021 -3.28404,-6.55361 -1.58867,-1.39992 -3.54556,-2.38519 -5.38727,-2.5802 -0.32223,-0.0341 -0.65097,-0.0497 -0.98443,-0.0476 z"
         style="fill:#402423;fill-opacity:1;stroke:#000000;stroke-width:2;stroke-linejoin:round;stroke-opacity:1"
         id="path17" /><circle
         style="fill:#ffffff;stroke:#000000;stroke-width:2;stroke-linejoin:round;stroke-dasharray:none;stroke-opacity:1"
         id="path19"
         cx="105.67192"
         cy="142.5246"
         r="7.1220889" /><circle
         style="fill:#ffffff;stroke:#000000;stroke-width:2;stroke-linejoin:round;stroke-dasharray:none;stroke-opacity:1"
         id="circle19"
         cx="86.790108"
         cy="142.35896"
         r="7.1220889" /><ellipse
         style="fill:#fe8e90;fill-opacity:1;stroke:#000000;stroke-width:2;stroke-linejoin:round;stroke-dasharray:none;stroke-opacity:1"
         id="path20"
         cx="96.562271"
         cy="162.97989"
         rx="11.511282"
         ry="9.1096487" /><path
         style="fill:none;stroke:#000000;stroke-width:2;stroke-linecap:round;stroke-linejoin:round;stroke-dasharray:none;stroke-opacity:1"
         d="m 133.33212,165.38152 c 0,0 2.43905,-1.91918 2.89853,-3.3126 0.52911,-1.60456 0.64642,-3.73644 -0.41408,-5.05171 -0.83314,-1.03329 -2.75112,-1.96045 -3.80949,-1.15941 -1.07878,0.81649 -0.88357,3.11108 0.0828,4.05793 1.41968,1.39101 4.27552,1.05067 5.96268,0 1.54051,-0.95934 2.44514,-3.72061 2.53109,-5.53338 0.0923,-1.94607 -0.39277,-4.47516 -2.07037,-5.46579 -1.17656,-0.69476 -3.4526,-0.64526 -4.05794,0.57971 -0.92535,1.87253 1.12574,4.68784 3.06416,5.46578 1.92874,0.77406 4.6313,-0.2261 5.96268,-1.82192 1.37096,-1.64326 1.70038,-4.46163 0.74533,-6.37676 -0.75641,-1.51681 -2.69423,-2.5669 -4.38919,-2.56726 -0.91855,-1.9e-4 -2.15319,0.66252 -2.15319,0.66252"
         id="path21"
         sodipodi:nodetypes="cssssssssssssc" /><circle
         style="fill:#000000;fill-opacity:1;stroke:none;stroke-width:3.71429;stroke-linecap:round;stroke-linejoin:round;stroke-dasharray:none;stroke-opacity:1"
         id="path22"
         cx="89.964188"
         cy="143.30746"
         r="2.4289401" /><circle
         style="fill:#000000;fill-opacity:1;stroke:none;stroke-width:3.71429;stroke-linecap:round;stroke-linejoin:round;stroke-dasharray:none;stroke-opacity:1"
         id="circle22"
         cx="102.38915"
         cy="141.34563"
         r="2.4289401" /><circle
         style="fill:#000000;fill-opacity:1;stroke:none;stroke-width:3.71429;stroke-linecap:round;stroke-linejoin:round;stroke-dasharray:none;stroke-opacity:1"
         id="circle23"
         cx="101.54836"
         cy="162.45872"
         r="2.4289401" /><circle
         style="fill:#000000;fill-opacity:1;stroke:none;stroke-width:3.71429;stroke-linecap:round;stroke-linejoin:round;stroke-dasharray:none;stroke-opacity:1"
         id="circle24"
         cx="90.898392"
         cy="162.55214"
         r="2.4289401" /><circle
         style="fill:#000000;fill-opacity:1;stroke:none;stroke-width:3.71429;stroke-linecap:round;stroke-linejoin:round;stroke-dasharray:none;stroke-opacity:1"
         id="circle25"
         cx="90.898392"
         cy="162.55214"
         r="2.4289401" /></g></g></svg>
